<mxfile host="app.diagrams.net" modified="2022-06-13T06:58:35.952Z" agent="5.0 (Windows NT 10.0; WOW64) AppleWebKit/537.36 (KHTML, like Gecko) Chrome/102.0.0.0 Safari/537.36" etag="rgrivHCvMQ4xp83h26X5" version="17.4.1" type="github">
  <diagram id="Pai8ok9RmJks06JW81sK" name="Page-1">
    <mxGraphModel dx="885" dy="541" grid="1" gridSize="10" guides="1" tooltips="1" connect="1" arrows="1" fold="1" page="1" pageScale="1" pageWidth="850" pageHeight="1100" math="0" shadow="0">
      <root>
        <mxCell id="0" />
        <mxCell id="1" parent="0" />
        <mxCell id="TRVSji0SfKdkGA1JncBO-2" value="HybridAKS Clusters" style="rounded=1;whiteSpace=wrap;html=1;" vertex="1" parent="1">
          <mxGeometry x="200" y="420" width="120" height="60" as="geometry" />
        </mxCell>
        <mxCell id="TRVSji0SfKdkGA1JncBO-5" value="Customer Owned DataCenter" style="text;html=1;strokeColor=none;fillColor=none;align=center;verticalAlign=middle;whiteSpace=wrap;rounded=0;" vertex="1" parent="1">
          <mxGeometry x="320" y="270" width="150" height="30" as="geometry" />
        </mxCell>
        <mxCell id="TRVSji0SfKdkGA1JncBO-8" value="" style="edgeStyle=orthogonalEdgeStyle;rounded=0;orthogonalLoop=1;jettySize=auto;html=1;" edge="1" parent="1">
          <mxGeometry relative="1" as="geometry">
            <mxPoint x="97.5" y="115" as="sourcePoint" />
            <mxPoint x="210" y="115" as="targetPoint" />
          </mxGeometry>
        </mxCell>
        <mxCell id="TRVSji0SfKdkGA1JncBO-9" value="" style="shape=flexArrow;endArrow=classic;html=1;rounded=0;entryX=0.5;entryY=0;entryDx=0;entryDy=0;exitX=0.5;exitY=1;exitDx=0;exitDy=0;" edge="1" parent="1" source="TRVSji0SfKdkGA1JncBO-51" target="TRVSji0SfKdkGA1JncBO-2">
          <mxGeometry width="50" height="50" relative="1" as="geometry">
            <mxPoint x="259.96249999999986" y="150" as="sourcePoint" />
            <mxPoint x="450" y="210" as="targetPoint" />
          </mxGeometry>
        </mxCell>
        <mxCell id="TRVSji0SfKdkGA1JncBO-10" value="&lt;font style=&quot;font-size: 10px&quot;&gt;Provisioning Cluster in Customer&#39;s own datacenter through Azure&lt;/font&gt;" style="text;html=1;strokeColor=none;fillColor=none;align=center;verticalAlign=middle;whiteSpace=wrap;rounded=0;" vertex="1" parent="1">
          <mxGeometry x="60" y="210" width="210" height="30" as="geometry" />
        </mxCell>
        <mxCell id="TRVSji0SfKdkGA1JncBO-15" value="" style="endArrow=none;dashed=1;html=1;dashPattern=1 3;strokeWidth=2;rounded=0;" edge="1" parent="1">
          <mxGeometry width="50" height="50" relative="1" as="geometry">
            <mxPoint x="70" y="260" as="sourcePoint" />
            <mxPoint x="450" y="500" as="targetPoint" />
            <Array as="points">
              <mxPoint x="450" y="260" />
            </Array>
          </mxGeometry>
        </mxCell>
        <mxCell id="TRVSji0SfKdkGA1JncBO-17" value="" style="shape=flexArrow;endArrow=classic;html=1;rounded=0;entryX=1;entryY=0.25;entryDx=0;entryDy=0;exitX=0.5;exitY=1;exitDx=0;exitDy=0;exitPerimeter=0;" edge="1" parent="1" source="TRVSji0SfKdkGA1JncBO-30" target="TRVSji0SfKdkGA1JncBO-2">
          <mxGeometry width="50" height="50" relative="1" as="geometry">
            <mxPoint x="380" y="430" as="sourcePoint" />
            <mxPoint x="450" y="190" as="targetPoint" />
            <Array as="points" />
          </mxGeometry>
        </mxCell>
        <mxCell id="TRVSji0SfKdkGA1JncBO-22" value="User" style="html=1;strokeColor=none;fillColor=#0079D6;labelPosition=center;verticalLabelPosition=middle;verticalAlign=top;align=center;fontSize=12;outlineConnect=0;spacingTop=-6;fontColor=#FFFFFF;sketch=0;shape=mxgraph.sitemap.user;" vertex="1" parent="1">
          <mxGeometry x="40" y="80" width="120" height="70" as="geometry" />
        </mxCell>
        <mxCell id="TRVSji0SfKdkGA1JncBO-23" value="User" style="html=1;strokeColor=none;fillColor=#0079D6;labelPosition=center;verticalLabelPosition=middle;verticalAlign=top;align=center;fontSize=12;outlineConnect=0;spacingTop=-6;fontColor=#FFFFFF;sketch=0;shape=mxgraph.sitemap.user;" vertex="1" parent="1">
          <mxGeometry x="630" y="150" width="120" height="70" as="geometry" />
        </mxCell>
        <mxCell id="TRVSji0SfKdkGA1JncBO-26" value="Customers get line of sight to the clusters from anywhere in the world using proxy" style="text;html=1;strokeColor=none;fillColor=none;align=center;verticalAlign=middle;whiteSpace=wrap;rounded=0;" vertex="1" parent="1">
          <mxGeometry x="600" y="260" width="220" height="30" as="geometry" />
        </mxCell>
        <mxCell id="TRVSji0SfKdkGA1JncBO-30" value="" style="verticalLabelPosition=bottom;verticalAlign=top;html=1;shape=mxgraph.infographic.cylinder;fillColor=#10739E;strokeColor=none;rotation=60;" vertex="1" parent="1">
          <mxGeometry x="425" y="310" width="40" height="100" as="geometry" />
        </mxCell>
        <mxCell id="TRVSji0SfKdkGA1JncBO-35" value="" style="endArrow=none;dashed=1;html=1;dashPattern=1 3;strokeWidth=2;rounded=0;" edge="1" parent="1">
          <mxGeometry width="50" height="50" relative="1" as="geometry">
            <mxPoint x="450" y="260" as="sourcePoint" />
            <mxPoint x="450" y="40" as="targetPoint" />
          </mxGeometry>
        </mxCell>
        <mxCell id="TRVSji0SfKdkGA1JncBO-38" value="Azure" style="text;html=1;strokeColor=none;fillColor=none;align=center;verticalAlign=middle;whiteSpace=wrap;rounded=0;" vertex="1" parent="1">
          <mxGeometry x="395" y="230" width="60" height="30" as="geometry" />
        </mxCell>
        <mxCell id="TRVSji0SfKdkGA1JncBO-39" value="Arc Data Plane Services" style="rounded=1;whiteSpace=wrap;html=1;" vertex="1" parent="1">
          <mxGeometry x="310" y="100" width="120" height="60" as="geometry" />
        </mxCell>
        <mxCell id="TRVSji0SfKdkGA1JncBO-40" value="" style="shape=flexArrow;endArrow=classic;html=1;rounded=0;exitX=0.75;exitY=0;exitDx=0;exitDy=0;" edge="1" parent="1" source="TRVSji0SfKdkGA1JncBO-2">
          <mxGeometry width="50" height="50" relative="1" as="geometry">
            <mxPoint x="430" y="240" as="sourcePoint" />
            <mxPoint x="370" y="160" as="targetPoint" />
            <Array as="points">
              <mxPoint x="320" y="320" />
            </Array>
          </mxGeometry>
        </mxCell>
        <mxCell id="TRVSji0SfKdkGA1JncBO-48" value="Onboarding to Azure" style="edgeLabel;html=1;align=center;verticalAlign=middle;resizable=0;points=[];fontSize=10;" vertex="1" connectable="0" parent="TRVSji0SfKdkGA1JncBO-40">
          <mxGeometry x="0.515" y="-6" relative="1" as="geometry">
            <mxPoint as="offset" />
          </mxGeometry>
        </mxCell>
        <mxCell id="TRVSji0SfKdkGA1JncBO-50" value="" style="shape=flexArrow;endArrow=classic;html=1;rounded=0;fontSize=10;entryX=0.5;entryY=0;entryDx=0;entryDy=0;entryPerimeter=0;exitX=0.005;exitY=0.995;exitDx=0;exitDy=0;exitPerimeter=0;" edge="1" parent="1" source="TRVSji0SfKdkGA1JncBO-23" target="TRVSji0SfKdkGA1JncBO-30">
          <mxGeometry width="50" height="50" relative="1" as="geometry">
            <mxPoint x="430" y="220" as="sourcePoint" />
            <mxPoint x="480" y="170" as="targetPoint" />
          </mxGeometry>
        </mxCell>
        <mxCell id="TRVSji0SfKdkGA1JncBO-51" value="" style="shape=image;imageAspect=0;aspect=fixed;verticalLabelPosition=bottom;verticalAlign=top;fontSize=10;image=data:image/png,/9j/4AAQSkZJRgABAQAAAQABAAD/4gKgSUNDX1BST0ZJTEUAAQEAAAKQbGNtcwQwAABtbnRyUkdCIFhZWiAAAAAAAAAAAAAAAABhY3NwQVBQTAAAAAAAAAAAAAAAAAAAAAAAAAAAAAAAAAAA9tYAAQAAAADTLWxjbXMAAAAAAAAAAAAAAAAAAAAAAAAAAAAAAAAAAAAAAAAAAAAAAAAAAAAAAAAAAAAAAAtkZXNjAAABCAAAADhjcHJ0AAABQAAAAE53dHB0AAABkAAAABRjaGFkAAABpAAAACxyWFlaAAAB0AAAABRiWFlaAAAB5AAAABRnWFlaAAAB+AAAABRyVFJDAAACDAAAACBnVFJDAAACLAAAACBiVFJDAAACTAAAACBjaHJtAAACbAAAACRtbHVjAAAAAAAAAAEAAAAMZW5VUwAAABwAAAAcAHMAUgBHAEIAIABiAHUAaQBsAHQALQBpAG4AAG1sdWMAAAAAAAAAAQAAAAxlblVTAAAAMgAAABwATgBvACAAYwBvAHAAeQByAGkAZwBoAHQALAAgAHUAcwBlACAAZgByAGUAZQBsAHkAAAAAWFlaIAAAAAAAAPbWAAEAAAAA0y1zZjMyAAAAAAABDEoAAAXj///zKgAAB5sAAP2H///7ov///aMAAAPYAADAlFhZWiAAAAAAAABvlAAAOO4AAAOQWFlaIAAAAAAAACSdAAAPgwAAtr5YWVogAAAAAAAAYqUAALeQAAAY3nBhcmEAAAAAAAMAAAACZmYAAPKnAAANWQAAE9AAAApbcGFyYQAAAAAAAwAAAAJmZgAA8qcAAA1ZAAAT0AAACltwYXJhAAAAAAADAAAAAmZmAADypwAADVkAABPQAAAKW2Nocm0AAAAAAAMAAAAAo9cAAFR7AABMzQAAmZoAACZmAAAPXP/bAEMABQMEBAQDBQQEBAUFBQYHDAgHBwcHDwsLCQwRDxISEQ8RERMWHBcTFBoVEREYIRgaHR0fHx8TFyIkIh4kHB4fHv/bAEMBBQUFBwYHDggIDh4UERQeHh4eHh4eHh4eHh4eHh4eHh4eHh4eHh4eHh4eHh4eHh4eHh4eHh4eHh4eHh4eHh4eHv/CABEIAZABkAMBIgACEQEDEQH/xAAbAAEBAAMBAQEAAAAAAAAAAAAAAQQGBwUDAv/EABoBAQACAwEAAAAAAAAAAAAAAAABBQMEBgL/2gAMAwEAAhADEAAAAeygAAAAAAAAAAAAAAAAAAAAAAAAAAAAAAAAAAAAAAAAAAAAAAAAAAAAAAAAAAAAAAAAAAAAAAAAAAAAAAAAAAAAAAAAAAAAAAAAAAAAAAAAAAAAABAAAAAJAAAAAAAAAAAAAAAAAA1Xk2Tr9vWe9vHJtzzVu0vgyVn3fAfdjjIY8MzaNLztfd3wU3VgAAAAAAAAAAAAAAAPI9fm2TFzGVfVHz9Pzfx4dVnw+2WgqEEJsJERPQMzWdl5/saMeyAAAAAAAAAAAAAAA4L2LgVjoSVZaP5+f1/Hn1t2w6Dvs1NR71SE2QWIZ+/8x6FWX2aK28AAAAAAAAAAAAAAA5rzT2vFvaUM+Kfn9/mJ+XSOcbZ519ihkqyCxJmpC7Rq2bg2uiCg68AAAAAAAAAAAAAB4vtc1y4eajoKUBKifl6GD8/E9Mnw++SlImLILETUS6JnartXO9fRi2QAAAAAAAAAAAAHBOwcIsq6KtK+SoRR+Pn9vx597N7+jbxNbUetciViJqQz+jcq6NV3foCsvAAAAAAAAAAAAAOac49fyegoosz4gglE/H0/MTk7/h7NqetdRu05BYhUkrtOq5mDa6YOe60AAAAAAAAAAAB4fucyzYOeDoqJKhFiYok/Wd59dfzvUvPXfKmRjdFyFkeosQqQqRPSfR0/cOe6ujBtAAAAAAAAAAATgvXeHWlYlWtbFQgAiZv2hdu09vYhSXOma10Pnd3zNkbuhZErEKgzencj6TV3XqCquwAAAAAAAAABDmfPvS83o+fSs2GKIyHvHjzJGR33iW11lj0Rzuae30PmGT5m1oEWVPZBYiakldr1PMwbPU0vOdWAAAAAAAAABPB9/mOfX0BXR8/AmUMz9YeVsalHvGAlHy/c+GHLtrH+2LxUAiakKkT0z1dJ3bnOoowbQAAAAAAAAH54L1ziltUwWtYCUolDK/eF72TB5ozYAPz8vt8/Hv0PW1vYtf1Uk+agETUGX1bjvTKq49gVN0AAAAAAAAPycy0P0MDpubizNhiiLIkD0+4c+6VRXXH/AAO9crsa3WBbVT5/T8xOPsPg5+DL6yTz5qAgqSZu16nlYM/XEvNdSCQAAAAAAGu7FzDY1tEV0vOxYARUTF9Tz6617dct0r5/RHrlupd95teUWlSrin+S/HFm2Zj/AGxxUSIlYkKhPTva0Lfeb6YNfaAAAAAAAcV7Vqu3p8hen8r+iwZnjAZ4896A8/oWvdart/PFNdAAc90Hv+kXFLzX5+tLaq/ObkXF6xWUMRlwxZljEZf0Tk9Q1/YaG/DU3QAAAAAAAAAQAACQAAAAQAAAAACQAAAAAAAAAAAAAAAAAAAAAAAAAAAAAAAAAAAAAAAAAAAAAAAAAAAAAAAAAAAAAAAAAAAAAAAAAAAAAAAAAAAAAAAAAAAAAAAAAAAAAAAP/8QAKhAAAAQFAwQDAAMBAAAAAAAAAQMEBQACExQwBhFAEBIgIRYiUDEzgJD/2gAIAQEAAQUC/wCAz+6g3FHObgbMmeFpUxakyeSsbFY6Kx0VjorHRWOisdFY6JVJ8ooFVxL+I/qLp1gYYje9NhQGU1X4bsotG7oMM5tJdiSGVU/4WtVG0nXcZZiTANJwspnr8J9UXTp1GGI3uT4UBlJV+C8KLVt8BhqMpLcSIyqm/A1oo9ePsBIMA0nCxmfgvai6c/EYZDNycKE2kq57yotW3yGGwyksxITKqXnazUYB9QnMqkYWI3nvKi6cvMYZTNycKE2kq5r2otWzAMNxlJZibzayTmazUe8AwgIFSuUF0j8LCb75juounHDoxN3q3wrtOwoTaKrlvii1bMWm01s1OpVVHibjayPlayUbz4W8i6WgGwD7BSXSPwsBv25TqounDDo5P3KOj8VsbhRG0VXJfVFs14tPJ7dq6OhVVHibDayPkaxUbmYW1PdLg9dRhWVRU4dPm/fkOai6X+NOKcU4pw0qAQKPkc8fI54+Rzx8lngxwvz8KI2iq478otmvxD+QHfAMJpuw/E1G1kPG1go3O8gHaAHfzGJoJn7ysOnjtjOKMOJ9yu8wHaJR38hgYb5vWFGbRVcXUCi3a8IeoVIz0xfgMDBE3YfiaDqyHiavUdx+FrT3TgeSWcU7NpiGfwGJoIn7ysOnTtjeGI7A4H3K3Do5PvPBkkpkjy1zo5uowMIJsSQ2gpD2HC1Aot2vEyJ7Zs6TyhNK9NIph6jBM3YdiZzqyDhauUdynC0p7lw8BDcHtppdRiaCJu8rDpw7tP4WoQEHfDo9P9vJ8aNugwMI/wCrCzAIuXCfWu+kMb1pc1msizWRZrIs1kWayLJZFkshEzrVE6JOWkTebyzVpp0SyUZUCuYZUqiULZTFspi2UxbKYtlMWymLZTFspiRGqnmaUFrL/v3/xAAoEQABAgUDBQEAAwEAAAAAAAACAQMABBITIBEwUQUQISIxQBVBcHH/2gAIAQMBAT8B/wAGdeVSicQqahWLp8xdPmLp8xdPmJKcNtxEVfC/idKkFXsQ1iqQqaLjKO3WhL8M4fweyRNhS5/3Ho7v1v8AC8dRqvZInAqCrjGTdtPCv4HjoBVwVKk0hU08Yyjt1oV350/g4JE0Gh6849Id+hvvnWargkTLGsvXjKO23UXemDoBVxHyukE0it0QQqJaLjKO3GkXdn3PgYyYVHrx26k1Q9rzj0l36G6+5W4q97oxdGJSbZbH2XzH8jL8x1B5p4EpXymMq5bdQtyZcobVcDCnAcpN240i7fUXPKBiTK/U+dxgselueVDbfcrcVcZFvRvVf7idkLfuHzskfUxlnLbqFtTTltpVxBKl0SAGlNO07IU+7fYcpRy40i7M60TrfrFs+IoPiKC4iguIkZcq6iTxhO9P1924Rs+ItnxFs+ItnxFsuItHxEiyTTft/gX/xAApEQAABAUEAgICAwAAAAAAAAABAgMEABITIFEFETAxECIhQBVwI0GR/9oACAECAQE/Af0MggUpNx7gpC79RIXESFxEhcRIXEOG5TE3APn6SBJzgHgblySHEPosCdm8DBOrdQJ0f6LdORMA8DBe7XKc6Yh9BuSdQAsG3aF05FBDn09Ps9gwTq3UU+j87dORMAsGCrfzyWuE6iYhzN051AC0wyhvFQZ54KMwbha5TpqCHLpyfZ7Xx5U9s+GKkye2LdRT6Pyt06aYB5kNEhoeNVlT+ofEfjnGIaN1UT+wfFrhOomIcjVOoqAWFNvYcLnSdNUQ49NT7PaCpd9h8mu1JPo/G3TppgFr9XdXYP6hk/qeh+/Awbu1wnUTEOJonUVALTmkLuMHMJjCI+GOob+ing4XO06aohwslipKe0VSZioTMVCZioTMP3JZJCjYy1Db0U/2BVJmKhMxUJmKhMxVJmKpMw9WBVT1/QX/xAA6EAABAgIECgkDAwUAAAAAAAABAgMAESEiMEEEEiAxNEBRcYGSEBMzQlBScpPBMmGhI2KCgJCisfD/2gAIAQEABj8C/sDBKAFPL+kG77xjKwx7+KpD8R+o+44i+aqYC0vLIOatHar5o7VfNHar5o7VfNHar5o7VfNHar5o7VfNEw6riYINCx4K8sGqk4ieHSWjnQfxZJNxoPgjz14TV33ZCRcurZoX9qfA2cFBz11fGQFDOIQ4O8J2S2uI8DecBqg4qdwyVNHuH8WSFXZj4E89eBJO/KTsXVs0LvlT4CzggP71fHzlTGeEODvCyW1xHgLzk6s8VO4Zamj3TZIVdOR8AednWxZJ3mwTsVVs0LvlTr7OCj1q+PmwmIQ5tFktk+oa+87OrjSTuFiprymYskLunTrzzoMlSxU7zZJ2Kq2aFXykddZwUH96vj5smWB31wtvYbJbJ9Q11564qkndZO4URQ2MUbzCXR3hTZIX96dcecBrEYqd5s2gRWXXPGFbU0izQq/MdbZwUXV1fFk0x51U7okOhbew2S2f5DW3nriqrusncKOZAxRvPSh3zCVkhy4GnWnVg1iMVPGzaBFZddXHpXtFYWaFXig6y1go7tc2TLHmVTuvyVt7DRZLZN9I1l165SqN12VnjPGeM8df1fWGUhTKUaKOeNFHPGijnjRE88FZa6tQG2c7JDmw06w6oGsoYqeOoJPCzQbxQdXawYd0YytRSqyWyb6Rq7r/AJlUbrtRUjjZNu7DTqzpBrLqDjZtrdTVcTMH4y0nhZoN6ap1VvBgfoGMd9kyzcVVt0FpxIUk3RjCamTmVs35aVWS2T3hMapOHX/MqjdZPYUbqifnoKFpCknODHWtTUwf8cpSONk275TqjkvqXUHGzaQRWIxlbz0lKgCDnEF9gEs3jy5KTZo2pqnU28HGZAmd5smWriqat2TIwcIwUfp95HlyUmyWye8JjU38a+X+rJ3Cj6E/OWcJwRPqQPjI42TUv+o1MONkB5P5EYqsFd4JnGiv+2Y0V/2zGiv+2Y0V/wBsxor/ALZjRX/bMaK/7ZiXVFpN6liUJYbzJ/NgX8EACz9SNsSOCvchinBngPQYkMHd5DGju8hjR3eQxo7vIY0d3kMaO7yGNHd5DGju8hjR3eQxIYO5xTKCtdLp/H9f3//EACwQAAECAgYLAQEBAAAAAAAAAAEAESEwMUBBcYGhECBRYZGxwdHh8PFQgJD/2gAIAQEAAT8h/wABqY2wgG0j0aTYXhQITFjBTgKArNycvvl9svtl9svtl9svtl9kozG8GaAAikgW7/xY4mAIObnFFAniWO95eVFuJhH8RsSza9hmOg6DgGG6+zOXGSJ4lv4dKcZFuEOrhoKKcCxHB3qiADclPkmjzfhx0MrHnHSUCcBFwXvLynQMRwD+EzZbGiA56h0GwTaOmct3C5MvCn8FuOiWstUKcIzAXBVkQmU6Cn2Y9PwWRcGUB3x1SgT/ACLwuPl5VlvAD+A37OQA76x0I6Nqxozlv0XgXhX6d7rLXCnECMREFAAWRN9sqknox6V9n3ciB31ygToGOEHzKiU0C4YV7sgEB3wkHQjE2jGjNpbhl+ICFddotCylB/kMAkWC08HRjFsBdZK3jdg9K6wBfCCA5SSvYIpwGaaJBi8PcpUR2AZcMDXIKGRDzhKKgIdnZMoBD5F4eW+RcBiCtuLgLG8w6uMo4egIzDk6EADAQCAEBiCjHNkLrJTZ5pHQPStGhNKXbXEBkJTae5TLnpYkQc3j3KVH6g3DAoVmHRiqDk5wlwZAYlDJtLSAcPA8PLfYuLGFZf7AMUwHXjKIyQFzsjoAAADDSDhijWHw1kps9QxhA9OFYJYOVGNyMKGTVZCCKM+Ez4XoyKWX4jSLV6bsvT9kff8AREPcdkEACQwxkrY3wVBQiKvDYxF4OdaADsQgca50NjhLsZb5lx4w8NV3LwxowGT8dcxuEIXGsdAVttIjfKedAcYU+7qsQAJJZkd6cGwoZGkGJwgjrhUU2QSivEOGtyQIIBFFVgCAxaWTyiJOExNAEoBId2/XNnBLsZbjFxcDw1VomsRUZc5Twh31xE5BAdkxJRyL2m9qWaAraQ0b5T3oYkPcqoAhFgIlFNUGOQMmlMJgDm8x6OOgf4WoBRAApTbuHvqhgqVuSjhLEm63JEAEFwam8yburJ5cOzMB4w0gwMxA4IRsTjSHx0nQ2EuxlvEl8koyapvT9eYc5Tmh8IInVAYAIMCCjm+0gZhu5aDoBBbVWY3ynxQxgeOVTiWiIXMlOBaImfRrGKsUUjUb+zQCFCQb2m0rZTJJudUwgZ2D0bIo0cxtQ4iC9s6L2zovbOi9s6L2zovSOi9M6IGJ/sJhSUEWFSaStJkUghOMN8bCil6Gwiv4IqCRYEkkkkkkkkkHH07QOJT8wCxagNn9/f/aAAwDAQACAAMAAAAQ888888888888888888888888888888888888888888888888888888888888888888888888888888888888888888888888888888888888885xxxx8888888888888888888sD6z7Hb88888888888888888XqddJqQqu8888888888888888JYIcJ4YX48888888888888888vJlYTLWe9888888888888888T8NKhS6bWBe88888888888888Kgfzwdq9Ukb88888888888888TELTReo4XF28888888888888EBREpVAjYEHm9888888888888uciNC18jKMUjc888888888888IayldQw9rbWHq88888888888gDKSB995DPr2mm98888888888zvMQQo99Knkh0A+8888888888wk92vCj9ZVEp9k3188888888QiEByhz9H7emgoXKA88888888SISBpf88segMgiToR8888888888999888889d9999888888888888888888888888888888888888888888888888888888888888888888888888888888888888888888888888888888888//EACoRAAIBAgUDBAIDAQAAAAAAAAERACExEFFhcZEwQcEgQIHRYOGhsfDx/9oACAEDAQE/EPy5iMRiMRj2huAaCBPARepmv5M1/Jmv5M1/JhuZIiCc+/x7PgGAK9xDmBvioCqxyXVdxQ+xQjeOFHhFqvuKKLCibcf0fY5eRwogD/g4LF42aOxp+/YZwYOAwJz7wxErjBRQBRy3SO4p17bv9RxxwoyC1UUWNz3Hnx18lPqPBwou7wf4NP79OV7R2ND1s3LD5jjjjgEAXMKzsQodXhSKLBKZ3pHcU6tYG58YuOIytV9YNhtX894sVEP3Hnq5Udto45qTWhNdHIz/ABBhecTI2N4osFMqnXY0MHTRl7D5jjhrDkxbEQ3QwhFRehnXFDuOnQW58R4lEIxEjYX0xKDVxYKKLL71HnpEqZVk027RxxxwJQfpaGIhfcMv1gVZ/DFgsMiga7GhgL6OeBoPnFxwobxpABGwChAIRlcKncZajSWh9oQisVg9rih+OikXAtZwgKJcGazia7ia7iJlAs+59FYOvceR9QYonwYSG7iaziazia7iAhQPgxJoJLWXSUQiEQ9SEQiEQiEX5V//xAApEQABAgQGAgICAwAAAAAAAAABABEQITFRIEFhcZHBMIFA0XDhobHw/9oACAECAQE/EPwMGAmqpAQWm4Wm4Wm4Wm4RpJKfCsT0mZSF0JwaFVZ3r4LpLt99QFE7MM0Gx67+Deip9wBSNvhYytRuPgWZz2CaBCFpoTnhWpy2PnmE2HfSaIonZZNgmC2PXnvVnuU0QQBab+a/1FoXmaW481r6n0mwBKVAgK87oIaRi0LD1Gx8ta2HfUGgyk6sn3BrKsn0mwUrY9eW87T3MGWktJDk0BcV5X+JH2jSUQuK8waN52luPI4VKn0miMWNcDgxEyKo9+OWbOQ76TQZBxMJkMxNNYgiGLYXgLKR678VVfdp75poMmRAE/eqEAO2Q3/cAkhbCvORLfJU8LpUEz6TJoMgEpCaqJEugWmExB55G+hhIQi0GWoZj34XjQQz2QKHA8haTlablaHlVME1bIYG4PLLoftHh28haPlaPlaTlaHlEQcjyE5aAGe/4C//xAArEAEAAgAEBQQDAAMBAQAAAAABABEQITFRQWFxgZEgQMHwUKGxMIDR4fH/2gAIAQEAAT8Q/wB1bN5ZuSzclm5LNyWbks3JZuSzclm5LNyWbn4YcFrknyRM0vIMrbzyYzJLqLowPEZV2hobo3fJy6awKlyZ4mXGfV/mfVfmfVfmfVfmfVfmfZfmP1f+z778wu+OCt2sQiTHCDZ8nDv+EdJvoa5cccmAZlTNYyS91PptjcuXjcuWfTUnIz6NPaDZf4PPN1PrUD0GNqq2uqw5QZTJGR1Wf6A7xZcuMuLLl4XWZLbsY6OX7DOf4LRUJa5naV8WGiGFCHm4BsfMqDKRepMzs2S5cuXLlxZcWVpWgOTl+1eYO/4FqrmrRTeWgTkowrAy4ma5XV3X+PIixZcuXLly5cyFOV9C+zT2hp+Bzw9Xjr50Q9BwrA5QTLeJ67n+gO+FxZcuLhcuXMowPBfsfv8AA6iCBsX+79D0JlDFGghaiZjKUgRDgpmdmyLLwuLFl4XBzOEPll9G/wCAdGZ/2rw1o5NMKlYmXE4en+//AB5EuXLiy8Liy5abZY4aS9rvtBsH3zNUKMOZnR0XwcKlYjKCVGg36mw8y8bixYsvC5ZugbjpPmr7zie+37zA9fs5emomUMTQWA1E0ZTnlg4cDs2S4suXFly4sWZ2wD4+jnAfetTPGkt5a0dQ8nCpXoMuJwrgfr8HzLl4LFlxZcWWZRL8NZ4u+0NCve5oA0NdaOluJWNSoMoJaKL/AKmzBcuXLly5cWXLVBzOusXrV9/enl4UTxb/AFfsSvTUSJlBHXTU4bZdAu0KJM0cdS7iMuXLly5eFy5n5kAOZX0bPvHRmf3iXlr51A9VxqV6TMwAap1k6MTkCXrxr1Ei4svC5cuLLlnAV/sUN9oNg+64k1Vsxz0CcwX0FYVKxFkyEO5Oa0bdCe0odS6TqheFxZcvG4s4wr+umr1ye8eXuazmuCSOWZ3gPFK9NSsTpVDNQZvYLtA6DACgDQgBAKR0YbyC28da7iRYsvC5cuLLmgUQ8yv0PhDL3KCy0TOtlvv5D3ZWNempnwidOYjmCsa5jBTqD3HEsWXLxWWFQH0jRZmBPcvnZ8OfGHM9AVKxrEjjT6nIbcyvtjX53Zzv8O8uXLl4XFl4XF6pH6NvUp7+5sZUiOWcLzAUVK9NSsACkqnA5nhAlgKAyAxBgESm+MRAii3F5rwmFxZcuXLixZdRRm/QR9wEqABavCIWxV/sUMKwqCUAtWX6B2Cc7HOxXfAmXqWsLFDnRXRY6v78/wD1Ui/7pI1pWcQFAC8QUlh4ly5cWXLiy8LeUMdf4FjAREcxPbJC4jdU6SnM8CV6VU8QwG+X8j6jDLOa7byf2nthcuL6LlxZ3Sy9Evm2d5x9s7qtA6a8wLHUrG+nU3l9Opt6hZgyJcTdPpZP7GXhcWXLly5cRspmvI7kT2wmwFquRF8lVuGUdhgqVjUqB1p/ssJk8TaZnpEsJnpqD5OT8eZcuXLiy5cuXCQgzTi8h5MYgUWJp7UDjWWnMKcy/tK9NSsRK0k1+SVALYN6eLz9Iyglwtdo5P7T2lxZeFy5cWXLieQi8p5s7+1W7HmOWiHmC8deqotEwH3cw6soCqHLkmycEzJpVNXmuVpsdHyA1piwJbcsVt16WT+zC5cvG4sWaSqN6aHUb9oLkFRaANWJAoy6gyewHbGsalY6KqYa0d4DzRI3Yp1g8GZLGDzdfDt2OeuIlilQzRr/AE/HmXjcWXFl4IE1SeLyHdJBCAsTRPZXnDp0HXseBfaVhXorGonAz/PUDzBIVxwXuIkgUiOpE1pm1XPi7Xhx3f5gYZerT7Ny/wDe0uLLiy8biy5lhJ69f6KX7Gs5mOqM7A9AOOpXqyb8CstPeoJ3IGQQ0hGFAdAsR1Ej6M823du7z+NJogl6lotvsWT/ACXjcuXLly5kP1t74dUsHsa4xaFljxdddsu3orCpWOeTUYcWvt3fUAU5kVsOfvQRw38NsORMhivoR0UH9GXLly8Liy8EANtzgLP+d5XsazZcqH5b13cEVR5o62W0dVv+gq7P+CtWrVqx4tqe6wjk6ToVzI87Wagb5hf+etlhPKg/dctwaHXJ14sKVnZBHtAW4AHsVBtXQf8AlH6N/J9K+J9C+J9K+J9a+J96+J96+J9++IEUlWA6gB5g2Hoz6ujxXK3kVu017OjaUbEo2JRsSjYlGxKNiUbEo/xUbEo2JRsSjYlGxKNiUbEo2JRsSjYlGxKNv9zf/9k=;" vertex="1" parent="1">
          <mxGeometry x="215" y="70" width="90" height="90" as="geometry" />
        </mxCell>
      </root>
    </mxGraphModel>
  </diagram>
</mxfile>
